<?xml version="1.0" encoding="UTF-8"?>
<svg width="170px" height="13px" viewBox="0 0 170 13" version="1.1" xmlns="http://www.w3.org/2000/svg" xmlns:xlink="http://www.w3.org/1999/xlink">
    <!-- Generator: Sketch 57.1 (83088) - https://sketch.com -->
    <title>Group 8</title>
    <desc>Created with Sketch.</desc>
    <g id="Page-1" stroke="none" stroke-width="1" fill="none" fill-rule="evenodd">
        <g id="Group-8" transform="translate(0.000000, -1.000000)">
            <rect id="Rectangle" fill="#05379B" x="0" y="1" width="13" height="13" rx="3"></rect>
            <g id="Group-7" transform="translate(2.000000, 0.000000)">
                <g id="Group-6" transform="translate(0.000000, 3.000000)">
                    <g id="Group-5" fill="#FFFFFF">
                        <g id="Group" transform="translate(0.006204, 0.007553)">
                            <polygon id="Path" points="2.84217094e-14 8.57734046 3.34935666 -1.42108547e-14 5.00198354 -1.42108547e-14 6.17137938 3.1121255 4.45499553 3.1121255 4.15491453 2.31926718 3.0090172 5.25467879 3.65086312 6.84104337 2.43140339 6.84104337 1.77150164 8.57734046"></polygon>
                            <polygon id="Path-2" points="6.61836513 8.57734046 5.88820183 6.79705369 4.25015575 6.79705369 3.65109489 5.2212701 5.2480158 5.2212701 4.61769089 3.53520208 6.39188935 3.53520208 7.00720232 5.2212701 8.58981882 5.2212701 9.1326838 6.79705369 7.62944398 6.79705369 8.26611777 8.57734046"></polygon>
                        </g>
                    </g>
                    <text id="Gradey" font-family="Phosphate-Solid, Phosphate" font-size="1.21387283" font-weight="normal" letter-spacing="0.0144508674" fill="#05379B">
                        <tspan x="4.2283237" y="6.34104046">Gradey</tspan>
                    </text>
                </g>
                <text id="GRADEY---GRADE-TRACK" font-family="Arial-Black, Arial Black" font-size="9.95375723" font-weight="700" letter-spacing="0.118497111" fill="#05379B">
                    <tspan x="13" y="11">GRADEY - GRADE TRACKER</tspan>
                </text>
            </g>
        </g>
    </g>
</svg>